<?xml version="1.0" encoding="UTF-8"?>
<svg id="Layer_1" data-name="Layer 1" xmlns="http://www.w3.org/2000/svg" viewBox="0 0 53.45 53.42">
  <defs>
    <style>
      .cls-1 {
        fill: #df6134;
      }
    </style>
  </defs>
  <path class="cls-1" d="M28.71,53.42c-5.23,0-10.05-1.08-12.24-2.33-4.26-2.43-8.14-6.83-10.71-11.9C1.2,37.19,.27,33.34,.03,30.03c-.13-1.76,.1-5.37,.77-7.25l.22-.65c.84-2.46,2.4-7.04,7.35-12.95C13.39,3.2,22.42-.39,31.38,.03c5.49,.26,12.86,2.67,17.08,8.64,3.32,4.69,5.02,11.72,4.99,16.24-.07,11.45-2.67,17.95-9.59,23.99-3.84,3.35-9.71,4.52-15.14,4.52Zm-19.59-13.29c2.27,3.75,5.3,6.92,8.58,8.78,3.48,1.98,17.84,3.93,24.51-1.9,6.38-5.57,8.67-11.36,8.74-22.12,.03-4.02-1.55-10.56-4.53-14.78-4.77-6.76-13.46-7.5-15.16-7.59-6.23-.29-15.46,1.69-20.96,8.26-4.65,5.55-6.12,9.85-6.9,12.16l-.23,.68c-.49,1.37-.76,4.57-.64,6.23,.14,1.89,.48,3.49,1.33,4.77-.25-.76-.46-1.53-.64-2.3-.16-.67,.26-1.34,.93-1.5,.67-.16,1.34,.26,1.5,.93,.43,1.86,1.09,3.71,1.91,5.48,.5,.17,1.06,.32,1.67,.44,.68,.14,1.11,.8,.98,1.47-.11,.55-.56,.93-1.09,.99Z"/>
  <path class="cls-1" d="M19.37,18.39c.07,.38,0-.33,0,.06,0,.08,0,.15,0,.23,0,.11-.01,.23-.01,.34,0,.37,.05-.23,0,0-.09,.42-.19,.82-.34,1.22-.03,.09-.06,.19-.11,.27,.15-.3,.02-.06-.01,.02-.09,.2-.18,.39-.28,.58-.19,.38-.38,.77-.58,1.15-.1,.21-.21,.41-.31,.62-.04,.07-.28,.44-.26,.49-.03-.06,.31-.29,.29-.28,1.03-.6,1.91,.95,1.45,.21-.13-.21-.26-.43-.39-.64-.21-.35-.43-.69-.63-1.04-.1-.17-.2-.33-.29-.5-.04-.07-.07-.14-.11-.21-.03-.07-.07-.14-.1-.21,.07,.18,.08,.2,.02,.04-.06-.18-.11-.35-.16-.53-.09-.3,.01,.09,0,.08-.02-.01-.02-.31,0-.32-.06,.03-.05,.34,.01,.04l.02-.05c-.03,.13-.1,.25-.2,.34,.21-.21-.25,.15-.08,.04,.3-.19-.28,.08-.02,0l-.24,.04c-.25-.05-.32-.06-.2-.03h.04c-.15-.03-.28-.1-.39-.2l-.13-.17c-.08-.22-.1-.27-.07-.16,.05,.28-.04-.03,0-.09-.04,.05,0,.38-.01,.46-.02,.24-.06,.49-.09,.73-.1,.91,0,1.88,.5,2.67,.62,.97,1.63,1.35,2.73,1.44,.48,.04,.99,.05,1.46-.08,.77-.21,1.3-.78,1.55-1.52,.34-.99,.46-2.22-.15-3.12-.44-.65-1.34-1-2.05-.54-.65,.42-1.01,1.36-.54,2.05,.07,.1,.15,.35,.02-.02,.11,.3,.02-.35,0-.03,0,.02-.01,.29,0,.29l.03-.2c-.01,.07-.02,.13-.04,.2-.03,.16-.08,.32-.12,.48l-.03,.09c.06-.23,.2-.41,.42-.53,.23-.08,.27-.1,.12-.05-.16,.03-.12,.03,.13-.01-.05-.04-.42,0-.48,0-.1,0-.2-.01-.31-.02-.35-.01,.33,.09,0,0-.02,0-.29-.06-.29-.08,0-.03,.29,.15,.09,.03-.29-.18,.23,.23,0,0-.11-.12-.09-.09,.06,.09-.03-.05-.07-.1-.09-.16-.16-.26,.07,.32,.01,.01-.01-.08-.04-.16-.06-.23-.05-.2,0,.39,.01,.07,0-.12,0-.24,0-.37,.02-.47,.12-.93,.14-1.4,.06-1.32-.78-2.55-2.17-2.62-.63-.03-1.28,.24-1.74,.67-.51,.47-.75,1.12-.81,1.8-.09,1.04,.37,2.08,.87,2.97,.21,.38,.45,.75,.68,1.13,.28,.46,.54,1.02,.92,1.41,.6,.62,1.51,.72,2.25,.31,.55-.31,.83-.86,1.1-1.4,.51-1.02,1.05-2.03,1.46-3.09,.46-1.16,.61-2.36,.4-3.6-.14-.77-1.13-1.28-1.85-1.05-.83,.27-1.19,1.01-1.05,1.85h0Z"/>
  <path class="cls-1" d="M39.09,15.55c-.85,1.05-1.6,2.09-1.74,3.48-.07,.68,.1,1.4,.34,2.03,.23,.6,.49,1.18,.83,1.73,.43,.68,.94,1.33,1.75,1.54,1,.26,1.93-.35,2.4-1.2,.58-1.04,.51-2.18,.51-3.32,0-.14,0-.29,0-.43,0-.06,0-.13,.01-.19,.01-.16,.1-.21-.01,.07,.04-.11,.05-.25,.09-.37,.06-.2,.11-.36,.14-.57,.15-1.11-.8-2.38-2.02-2.22-.49,.06-.86,.19-1.18,.59-.29,.37-.4,.85-.27,1.31,.32,1.07,.72,2.11,1.17,3.13,.14,.32,.57,.6,.9,.69,.36,.1,.84,.05,1.16-.15s.6-.51,.69-.9c.1-.42,.02-.77-.15-1.16-.03-.07-.06-.14-.09-.22l.06,.14c-.05-.1-.09-.22-.13-.33-.09-.22-.17-.44-.25-.66-.16-.44-.31-.89-.44-1.35l-1.45,1.9c.26-.02,.11-.08-.45-.16-.31-.19-.48-.5-.5-.92,0-.4,0-.12-.05,.02-.1,.32-.14,.66-.18,1-.05,.45-.04,.9-.03,1.35,0,.22,0,.45,0,.67,0,.11-.05,.26-.03,.37l.03-.22c-.01,.06-.02,.12-.04,.18-.02,.1-.11,.24-.11,.34,.09-.21,.11-.26,.06-.15-.02,.04-.04,.08-.07,.12-.09,.13-.06,.1,.07-.08-.18,.18-.06,.12,.38-.18,.26-.07,.5-.04,.73,.08,.16,.14,.2,.16,.12,.09-.24-.3,.13,.24-.05-.04-.08-.12-.16-.24-.24-.37-.13-.22-.25-.44-.36-.67-.03-.06-.2-.4-.03-.04-.06-.13-.11-.28-.16-.42-.04-.11-.07-.22-.1-.34-.02-.08-.04-.15-.05-.23-.03-.17-.03-.15,0,.05-.05-.1,0-.29,0-.4,0-.12,0-.07-.02,.15,.01-.07,.03-.13,.04-.19,.01-.06,.07-.35,.12-.38-.08,.19-.1,.23-.05,.13,.02-.05,.04-.09,.07-.13,.11-.21,.24-.41,.38-.6,.05-.08,.28-.47,.07-.11,.07-.11,.17-.22,.25-.32,.26-.32,.44-.63,.44-1.06,0-.37-.16-.81-.44-1.06-.55-.5-1.59-.65-2.12,0h0Z"/>
  <path class="cls-1" d="M15.79,21.57c-.13,.24-.24,.5-.32,.76s-.12,.55-.15,.83c-.02,.16-.02,.31,0,.47,.02,.28,.06,.56,.14,.83,.11,.37,.36,.7,.69,.9,.17,.11,.36,.17,.56,.18,.2,.04,.4,.04,.6-.03,.36-.12,.71-.34,.9-.69s.27-.76,.15-1.16c-.03-.11-.06-.23-.07-.34l.05,.4c-.02-.2-.02-.39,0-.59l-.05,.4c.03-.2,.08-.4,.16-.59l-.15,.36c.03-.07,.07-.14,.1-.21,.19-.35,.26-.77,.15-1.16-.05-.2-.14-.37-.27-.51-.11-.16-.25-.29-.42-.39-.35-.18-.77-.28-1.16-.15-.37,.12-.71,.34-.9,.69h0Z"/>
  <path class="cls-1" d="M28.17,31.99c.85,.75,2.75,1.7,3.77,1.7,.95,0,2.25-1.57,3.08-3.1,.56-1.02,1.11-2.47,1.07-3.6s-.44-1.4-.95-1.53c-.66-.17-2,.35-2.52,.44-1.13,.22-2.58-.36-4.06-.26s-2.49,.34-2.8,1.12c-.41,1.04,.66,3.68,2.41,5.22Z"/>
  <path class="cls-1" d="M30.3,33.19c-.15,1.07-.46,1.77-1.08,2.66-.19,.28-.16,.24-.37,.49-.15,.18-.32,.35-.49,.51-.09,.08-.18,.17-.27,.25-.01,.01-.27,.22-.09,.08-.18,.14-.36,.26-.56,.37-.08,.04-.16,.08-.24,.12-.12,.05-.1,.05,.03-.01-.05,.02-.1,.04-.15,.06-.07,.02-.15,.04-.23,.06-.19,.05-.11,.07,0,0-.16,.09-.55-.01-.73-.02-.28,0,.13,.04-.11-.01-.12-.02-.24-.05-.36-.08-.08-.02-.16-.05-.24-.08,.27,.09,.05,.02-.02-.02-.07-.04-.32-.24-.08-.03-.06-.05-.11-.1-.17-.15-.02-.02-.22-.26-.11-.11s-.08-.12-.09-.14c-.11-.17-.2-.35-.29-.53-.27-.55-1.04-.69-1.54-.4-.56,.33-.67,.99-.4,1.54,.48,.98,1.2,1.75,2.27,2.08s2.32,.29,3.36-.21,1.93-1.42,2.62-2.35c.75-1.01,1.32-2.22,1.5-3.47,.09-.6-.15-1.21-.79-1.38-.53-.14-1.3,.18-1.38,.79h0Z"/>
  <path class="cls-1" d="M31.07,33.53c1.24,2.1,2.88,4.11,5.24,4.95,1.34,.48,3.05,.64,4.35,0s2.01-1.99,2.03-3.41-2.22-1.45-2.25,0c0,.09,0,.18-.01,.28,.02-.08,.01-.05-.02,.08,0,.05-.14,.44-.07,.29-.06,.13-.13,.26-.22,.38,.12-.17-.13,.13-.16,.16-.05,.05-.1,.09-.15,.13,.1-.08,.1-.08,0,0-.08,.05-.17,.09-.25,.14-.12,.05-.11,.05,.02,0-.05,.02-.11,.04-.17,.06-.11,.03-.22,.05-.33,.08-.18,.05,.22,.02-.08,0-.08,0-.16,0-.25-.01-.11,0-.23-.02-.34-.03-.15-.01-.3-.03-.44-.04-.31-.03,.2,.04,0,0-.07-.02-.15-.02-.23-.04-.17-.03-.35-.07-.52-.12-.1-.03-.19-.06-.29-.09-.06-.02-.39-.16-.11-.03-.43-.19-.84-.43-1.22-.71-.1-.08-.11-.09-.03-.02-.06-.05-.12-.1-.17-.14-.12-.1-.24-.21-.35-.32-.22-.21-.43-.43-.63-.67-.54-.63-.99-1.32-1.42-2.04-.74-1.25-2.68-.12-1.94,1.14h0Z"/>
</svg>