<?xml version="1.0" encoding="UTF-8"?>
<svg id="Layer_1" data-name="Layer 1" xmlns="http://www.w3.org/2000/svg" viewBox="0 0 229.28 57.59">
  <defs>
    <style>
      .cls-1 {
        fill: #df6134;
      }

      .cls-2 {
        fill: none;
        stroke: #df6134;
        stroke-linecap: round;
        stroke-miterlimit: 10;
        stroke-width: 2.5px;
      }
    </style>
  </defs>
  <path class="cls-2" d="M12.48,40.98c-6.14-1.25-7.41-4.87-7.71-8.95-.12-1.71,.13-5.12,.7-6.74,.78-2.19,2.07-6.91,7.36-13.22S27.2,3.01,34.81,3.37c3.75,.18,11.59,1.69,16.12,8.11,3.11,4.4,4.79,11.19,4.76,15.51-.07,11.18-2.58,17.3-9.16,23.06-7.09,6.19-21.92,4.34-25.95,2.04-6-3.42-10.95-10.7-12.65-17.97"/>
  <path class="cls-1" d="M22.87,20.47c.07,.38,0-.33,0,.06,0,.08,0,.15,0,.23,0,.11-.01,.23-.01,.34,0,.37,.05-.23,0,0-.09,.42-.19,.82-.34,1.22-.03,.09-.06,.19-.11,.27,.15-.3,.02-.06-.01,.02-.09,.2-.18,.39-.28,.58-.19,.38-.38,.77-.58,1.15-.1,.21-.21,.41-.31,.62-.04,.07-.28,.44-.26,.49-.03-.06,.31-.29,.29-.28,1.03-.6,1.91,.95,1.45,.21-.13-.21-.26-.43-.39-.64-.21-.35-.43-.69-.63-1.04-.1-.17-.2-.33-.29-.5-.04-.07-.07-.14-.11-.21-.03-.07-.07-.14-.1-.21,.07,.18,.08,.2,.02,.04-.06-.18-.11-.35-.16-.53-.09-.3,.01,.09,0,.08-.02-.01-.02-.31,0-.32-.06,.03-.05,.34,.01,.04l.02-.05c-.03,.13-.1,.25-.2,.34,.21-.21-.25,.15-.08,.04,.3-.19-.28,.08-.02,0l-.24,.04c-.25-.05-.32-.06-.2-.03h.04c-.15-.03-.28-.1-.39-.2l-.13-.17c-.08-.22-.1-.27-.07-.16,.05,.28-.04-.03,0-.09-.04,.05,0,.38-.01,.46-.02,.24-.06,.49-.09,.73-.1,.91,0,1.88,.5,2.67,.62,.97,1.63,1.35,2.73,1.44,.48,.04,.99,.05,1.46-.08,.77-.21,1.3-.78,1.55-1.52,.34-.99,.46-2.22-.15-3.12-.44-.65-1.34-1-2.05-.54-.65,.42-1.01,1.36-.54,2.05,.07,.1,.15,.35,.02-.02,.11,.3,.02-.35,0-.03,0,.02-.01,.29,0,.29l.03-.2c-.01,.07-.02,.13-.04,.2-.03,.16-.08,.32-.12,.48l-.03,.09c.06-.23,.2-.41,.42-.53,.23-.08,.27-.1,.12-.05-.16,.03-.12,.03,.13-.01-.05-.04-.42,0-.48,0-.1,0-.2-.01-.31-.02-.35-.01,.33,.09,0,0-.02,0-.29-.06-.29-.08,0-.03,.29,.15,.09,.03-.29-.18,.23,.23,0,0-.11-.12-.09-.09,.06,.09-.03-.05-.07-.1-.09-.16-.16-.26,.07,.32,.01,.01-.01-.08-.04-.16-.06-.23-.05-.2,0,.39,.01,.07,0-.12,0-.24,0-.37,.02-.47,.12-.93,.14-1.4,.06-1.32-.78-2.55-2.17-2.62-.63-.03-1.28,.24-1.74,.67-.51,.47-.75,1.12-.81,1.8-.09,1.04,.37,2.08,.87,2.97,.21,.38,.45,.75,.68,1.13,.28,.46,.54,1.02,.92,1.41,.6,.62,1.51,.72,2.25,.31,.55-.31,.83-.86,1.1-1.4,.51-1.02,1.05-2.03,1.46-3.09,.46-1.16,.61-2.36,.4-3.6-.14-.77-1.13-1.28-1.85-1.05-.83,.27-1.19,1.01-1.05,1.85h0Z"/>
  <path class="cls-1" d="M42.58,17.64c-.85,1.05-1.6,2.09-1.74,3.48-.07,.68,.1,1.4,.34,2.03,.23,.6,.49,1.18,.83,1.73,.43,.68,.94,1.33,1.75,1.54,1,.26,1.93-.35,2.4-1.2,.58-1.04,.51-2.18,.51-3.32,0-.14,0-.29,0-.43,0-.06,0-.13,.01-.19,.01-.16,.1-.21-.01,.07,.04-.11,.05-.25,.09-.37,.06-.2,.11-.36,.14-.57,.15-1.11-.8-2.38-2.02-2.22-.49,.06-.86,.19-1.18,.59-.29,.37-.4,.85-.27,1.31,.32,1.07,.72,2.11,1.17,3.13,.14,.32,.57,.6,.9,.69,.36,.1,.84,.05,1.16-.15s.6-.51,.69-.9c.1-.42,.02-.77-.15-1.16-.03-.07-.06-.14-.09-.22l.06,.14c-.05-.1-.09-.22-.13-.33-.09-.22-.17-.44-.25-.66-.16-.44-.31-.89-.44-1.35l-1.45,1.9c.26-.02,.11-.08-.45-.16-.31-.19-.48-.5-.5-.92,0-.4,0-.12-.05,.02-.1,.32-.14,.66-.18,1-.05,.45-.04,.9-.03,1.35,0,.22,0,.45,0,.67,0,.11-.05,.26-.03,.37l.03-.22c-.01,.06-.02,.12-.04,.18-.02,.1-.11,.24-.11,.34,.09-.21,.11-.26,.06-.15-.02,.04-.04,.08-.07,.12-.09,.13-.06,.1,.07-.08-.18,.18-.06,.12,.38-.18,.26-.07,.5-.04,.73,.08,.16,.14,.2,.16,.12,.09-.24-.3,.13,.24-.05-.04-.08-.12-.16-.24-.24-.37-.13-.22-.25-.44-.36-.67-.03-.06-.2-.4-.03-.04-.06-.13-.11-.28-.16-.42-.04-.11-.07-.22-.1-.34-.02-.08-.04-.15-.05-.23-.03-.17-.03-.15,0,.05-.05-.1,0-.29,0-.4,0-.12,0-.07-.02,.15,.01-.07,.03-.13,.04-.19,.01-.06,.07-.35,.12-.38-.08,.19-.1,.23-.05,.13,.02-.05,.04-.09,.07-.13,.11-.21,.24-.41,.38-.6,.05-.08,.28-.47,.07-.11,.07-.11,.17-.22,.25-.32,.26-.32,.44-.63,.44-1.06,0-.37-.16-.81-.44-1.06-.55-.5-1.59-.65-2.12,0h0Z"/>
  <path class="cls-1" d="M19.29,23.66c-.13,.24-.24,.5-.32,.76s-.12,.55-.15,.83c-.02,.16-.02,.31,0,.47,.02,.28,.06,.56,.14,.83,.11,.37,.36,.7,.69,.9,.17,.11,.36,.17,.56,.18,.2,.04,.4,.04,.6-.03,.36-.12,.71-.34,.9-.69s.27-.76,.15-1.16c-.03-.11-.06-.23-.07-.34l.05,.4c-.02-.2-.02-.39,0-.59l-.05,.4c.03-.2,.08-.4,.16-.59l-.15,.36c.03-.07,.07-.14,.1-.21,.19-.35,.26-.77,.15-1.16-.05-.2-.14-.37-.27-.51-.11-.16-.25-.29-.42-.39-.35-.18-.77-.28-1.16-.15-.37,.12-.71,.34-.9,.69h0Z"/>
  <path class="cls-1" d="M31.66,34.08c.85,.75,2.75,1.7,3.77,1.7,.95,0,2.25-1.57,3.08-3.1,.56-1.02,1.11-2.47,1.07-3.6s-.44-1.4-.95-1.53c-.66-.17-2,.35-2.52,.44-1.13,.22-2.58-.36-4.06-.26s-2.49,.34-2.8,1.12c-.41,1.04,.66,3.68,2.41,5.22Z"/>
  <path class="cls-1" d="M33.79,35.28c-.15,1.07-.46,1.77-1.08,2.66-.19,.28-.16,.24-.37,.49-.15,.18-.32,.35-.49,.51-.09,.08-.18,.17-.27,.25-.01,.01-.27,.22-.09,.08-.18,.14-.36,.26-.56,.37-.08,.04-.16,.08-.24,.12-.12,.05-.1,.05,.03-.01-.05,.02-.1,.04-.15,.06-.07,.02-.15,.04-.23,.06-.19,.05-.11,.07,0,0-.16,.09-.55-.01-.73-.02-.28,0,.13,.04-.11-.01-.12-.02-.24-.05-.36-.08-.08-.02-.16-.05-.24-.08,.27,.09,.05,.02-.02-.02-.07-.04-.32-.24-.08-.03-.06-.05-.11-.1-.17-.15-.02-.02-.22-.26-.11-.11s-.08-.12-.09-.14c-.11-.17-.2-.35-.29-.53-.27-.55-1.04-.69-1.54-.4-.56,.33-.67,.99-.4,1.54,.48,.98,1.2,1.75,2.27,2.08s2.32,.29,3.36-.21,1.93-1.42,2.62-2.35c.75-1.01,1.32-2.22,1.5-3.47,.09-.6-.15-1.21-.79-1.38-.53-.14-1.3,.18-1.38,.79h0Z"/>
  <path class="cls-1" d="M34.57,35.62c1.24,2.1,2.88,4.11,5.24,4.95,1.34,.48,3.05,.64,4.35,0s2.01-1.99,2.03-3.41-2.22-1.45-2.25,0c0,.09,0,.18-.01,.28,.02-.08,.01-.05-.02,.08,0,.05-.14,.44-.07,.29-.06,.13-.13,.26-.22,.38,.12-.17-.13,.13-.16,.16-.05,.05-.1,.09-.15,.13,.1-.08,.1-.08,0,0-.08,.05-.17,.09-.25,.14-.12,.05-.11,.05,.02,0-.05,.02-.11,.04-.17,.06-.11,.03-.22,.05-.33,.08-.18,.05,.22,.02-.08,0-.08,0-.16,0-.25-.01-.11,0-.23-.02-.34-.03-.15-.01-.3-.03-.44-.04-.31-.03,.2,.04,0,0-.07-.02-.15-.02-.23-.04-.17-.03-.35-.07-.52-.12-.1-.03-.19-.06-.29-.09-.06-.02-.39-.16-.11-.03-.43-.19-.84-.43-1.22-.71-.1-.08-.11-.09-.03-.02-.06-.05-.12-.1-.17-.14-.12-.1-.24-.21-.35-.32-.22-.21-.43-.43-.63-.67-.54-.63-.99-1.32-1.42-2.04-.74-1.25-2.68-.12-1.94,1.14h0Z"/>
  <g>
    <path class="cls-1" d="M72.38,18.36c-1.71,3.33-2.65,6.98-3.71,10.55-1.12,3.77-2.2,7.58-2.12,11.55,.04,1.93,3.04,1.93,3,0-.07-3.7,.97-7.23,2.02-10.75,.98-3.32,1.82-6.74,3.41-9.83,.88-1.72-1.71-3.23-2.59-1.51h0Z"/>
    <path class="cls-1" d="M73.09,18.74c3.14,3.53,5.54,7.81,7.57,12.06s3.21,8.58,3.88,13.12c.28,1.9,3.17,1.09,2.89-.8-.71-4.81-2.09-9.45-4.19-13.84s-4.73-8.93-8.04-12.66c-1.28-1.45-3.4,.68-2.12,2.12h0Z"/>
    <path class="cls-1" d="M71,32.56c2.81,.98,5.84,1.37,8.81,1.12,.78-.07,1.54-.64,1.5-1.5-.03-.76-.66-1.57-1.5-1.5-1.39,.12-2.79,.1-4.18-.07-.5-.06,.28,.05-.22-.03-.18-.03-.36-.06-.54-.09-.33-.06-.66-.13-.99-.21-.71-.17-1.4-.37-2.08-.61-.74-.26-1.67,.29-1.85,1.05-.19,.84,.25,1.57,1.05,1.85h0Z"/>
    <path class="cls-1" d="M87.69,32.53c.41,3.36,1.35,6.57,2.85,9.6,.29,.59,1.09,.86,1.69,.69s1.17-.8,1.1-1.45c-.2-1.8-.62-3.74-.02-5.45,.06-.17,.07-.2,.03-.07,.04-.09,.09-.19,.14-.28,.03-.06,.33-.48,.21-.33,.13-.15,.28-.31,.44-.43-.2,.14,.25-.12,.29-.15-.26,.14,.22-.07,.29-.08,.09-.02,.18-.04,.27-.06-.17,.02-.17,.02,.01,0,.19,0,.37,0,.56,.01-.32-.02,.15,.03,.22,.05,.16,.04,.32,.09,.47,.15-.27-.1,.22,.12,.28,.15s.47,.35,.27,.17c.15,.13,.28,.27,.41,.41,.11,.14,.13,.15,.04,.05,.06,.08,.11,.17,.16,.25,.1,.17,.2,.35,.28,.53-.09-.22,.09,.3,.11,.35,.05,.17,.09,.34,.12,.52,.02,.11,.02,.1,0-.02,.01,.1,.02,.2,.03,.3,.01,.2,.01,.41,0,.61,0,.06-.07,.62-.03,.36-.04,.22-.09,.43-.15,.65-.25,.92-.66,1.79-.96,2.7-.26,.77,.3,1.64,1.05,1.85,.82,.22,1.59-.28,1.85-1.05,.56-1.67,1.33-3.23,1.24-5.04-.08-1.7-.72-3.47-2.03-4.6s-3.02-1.61-4.72-1.31c-1.83,.32-3.1,1.75-3.73,3.42-.76,2.01-.34,4.25-.11,6.32l2.8-.76c-1.23-2.48-2.11-5.39-2.44-8.09-.1-.8-.62-1.5-1.5-1.5-.73,0-1.6,.69-1.5,1.5h0Z"/>
    <path class="cls-1" d="M101.57,29.75c.21,4.45,.45,9.03,2.16,13.21,.31,.75,1,1.28,1.85,1.05,.71-.19,1.36-1.09,1.05-1.85-1.62-3.95-1.85-8.2-2.06-12.41-.04-.81-.66-1.5-1.5-1.5-.78,0-1.54,.69-1.5,1.5h0Z"/>
    <path class="cls-1" d="M100.02,22.07c.6,.29,1.17,.64,1.7,1.04l-.3-.23c.15,.12,.29,.23,.44,.36,.14,.15,.3,.25,.48,.31,.18,.09,.37,.14,.58,.13,.37,0,.81-.16,1.06-.44s.46-.66,.44-1.06-.14-.8-.44-1.06c-.74-.64-1.55-1.21-2.44-1.63-.17-.11-.36-.17-.56-.18-.2-.04-.4-.04-.6,.03-.35,.1-.73,.36-.9,.69-.18,.35-.28,.77-.15,1.16,.11,.35,.34,.73,.69,.9h0Z"/>
    <path class="cls-1" d="M106.66,30.91c.18,3.79,1.43,7.45,3.69,10.5,.4,.54,1,.88,1.69,.69,.59-.16,1.17-.8,1.1-1.45-.14-1.26,.23-2.36,.81-3.46,.34-.65,.99-2.32,1.77-2.55,.66-.19,1.35,.52,1.6,1.06,.51,1.11,.31,2.49,.22,3.66h3c.06-1.27,.07-2.73,.78-3.84,.38-.59,1.31-1.31,2.06-.96,.84,.39,.74,1.91,.81,2.67,.15,1.6,.46,3.17,.98,4.69,.62,1.82,3.52,1.04,2.89-.8-.35-1.01-.63-2.05-.78-3.11-.14-.93-.15-1.87-.3-2.79-.32-1.85-1.52-3.45-3.47-3.68-1.77-.21-3.52,.71-4.54,2.13-1.18,1.64-1.33,3.75-1.42,5.7s2.85,1.9,3,0,.23-3.89-.82-5.5c-.92-1.43-2.59-2.43-4.32-2.2-1.89,.26-2.87,1.92-3.73,3.45-.95,1.69-1.75,3.56-1.53,5.54l2.8-.76c-1.95-2.63-3.12-5.71-3.28-8.99-.09-1.92-3.09-1.93-3,0h0Z"/>
    <path class="cls-1" d="M191.74,30.91c.18,3.79,1.43,7.45,3.69,10.5,.4,.54,1,.88,1.69,.69,.59-.16,1.17-.8,1.1-1.45-.14-1.26,.23-2.36,.81-3.46,.34-.65,.99-2.32,1.77-2.55,.66-.19,1.35,.52,1.6,1.06,.51,1.11,.31,2.49,.22,3.66h3c.06-1.27,.07-2.73,.78-3.84,.38-.59,1.31-1.31,2.06-.96,.84,.39,.74,1.91,.81,2.67,.15,1.6,.46,3.17,.98,4.69,.62,1.82,3.52,1.04,2.89-.8-.35-1.01-.63-2.05-.78-3.11-.14-.93-.15-1.87-.3-2.79-.32-1.85-1.52-3.45-3.47-3.68-1.77-.21-3.52,.71-4.54,2.13-1.18,1.64-1.33,3.75-1.42,5.7s2.85,1.9,3,0,.23-3.89-.82-5.5c-.92-1.43-2.59-2.43-4.32-2.2-1.89,.26-2.87,1.92-3.73,3.45-.95,1.69-1.75,3.56-1.53,5.54l2.8-.76c-1.95-2.63-3.12-5.71-3.28-8.99-.09-1.92-3.09-1.93-3,0h0Z"/>
    <path class="cls-1" d="M137.07,36.15s-.19,.46-.08,.22c-.04,.09-.09,.19-.14,.28-.12,.23-.26,.45-.41,.66,.04-.06,.14-.16-.06,.06-.09,.1-.17,.19-.26,.29s-.18,.18-.28,.27c0,0-.36,.28-.18,.15-.38,.27-.79,.47-1.21,.66-.09,.04-.19,.08-.28,.12,.28-.12,.06-.03,0,0-.25,.09-.49,.18-.74,.25-.08,.02-.17,.05-.26,.07,0,0-.42,.08-.19,.04s-.19,.01-.19,.01c-.09,0-.18,0-.26,0-.37,.02,.23,.1-.12-.01-.08-.03-.17-.05-.26-.07,.23,.07,.04,.03-.02-.01-.09-.04-.17-.09-.25-.15,.08,.07,.08,.07,0,0-.11-.09-.19-.19-.29-.29,.16,.16,.06,.11,.03,.04-.04-.08-.09-.16-.13-.24,.02,.04,.11,.32,.03,.07-.12-.4-.22-.79-.28-1.21,.05,.34,0-.12-.01-.15,0-.09-.02-.19-.02-.28-.02-.24-.02-.48-.03-.71,0-.21,0-.42,.02-.63,0-.11,.02-.22,.02-.34,.02-.42-.06,.29,.01-.11,.04-.2,.08-.4,.14-.59,.03-.09,.06-.19,.1-.28-.09,.22,.05-.07,.07-.12,.04-.08,.36-.53,.24-.38,.1-.12,.21-.22,.31-.33,.19-.2-.09,.02,.16-.13,.08-.05,.17-.1,.25-.15,.37-.22-.13,.03,.1-.05,.11-.04,.23-.07,.35-.09-.26,.04-.02,.02,.03,.01,.37-.02-.17-.09,.2,.02,.1,.03,.2,.05,.3,.09-.2-.07,.03,.02,.06,.04,.09,.05,.18,.1,.27,.16,.14,.1,.17,.12,.1,.07,.75,.58,1.27,1.44,1.82,2.38,.66,1.13,1.11,2.23,1.52,3.46,.47,1.39,.99,2.7,1.92,3.84,.51,.63,1.59,.53,2.12,0,.62-.62,.51-1.49,0-2.12-.7-.85-1-2.13-1.43-3.33-.52-1.46-1.19-2.87-2.04-4.16-.76-1.15-1.65-2.34-2.91-2.97-1.39-.7-3.02-.62-4.3,.28-2.23,1.57-2.65,4.3-2.33,6.83,.15,1.22,.42,2.42,1.31,3.32,1.07,1.09,2.52,1.43,4,1.2,1.18-.19,2.47-.72,3.46-1.39,1.39-.93,2.37-2.24,2.93-3.81,.27-.76-.31-1.64-1.05-1.85-.83-.23-1.57,.28-1.85,1.05h0Z"/>
    <path class="cls-1" d="M140.02,32.61c.82,3.43,1.81,7.03,4.47,9.52,.73,.69,1.81,.52,2.36-.3,1.63-2.46,2.48-5.36,2.49-8.31,0-1.94-2.9-1.92-3,0-.12,2.42,.52,4.9,1.81,6.95,.64,1.02,1.48,2.14,2.5,2.82,1.35,.89,2.88,.08,3.88-.96,1.97-2.05,2.13-4.92,1.74-7.59-.42-2.83-1.32-5.55-2.52-8.13-.34-.73-1.4-.92-2.05-.54-.75,.44-.88,1.32-.54,2.05,.88,1.88,1.53,3.87,1.95,5.91,.38,1.81,.72,3.93-.27,5.6-.18,.3-.39,.58-.66,.81-.06,.05-.4,.24-.41,.28,.52,.17,.67,.17,.44-.01-.09-.08-.17-.16-.25-.24-.6-.6-1.1-1.26-1.51-2.01-.84-1.52-1.2-3.21-1.11-4.94h-3c0,2.45-.73,4.76-2.08,6.8l2.36-.3c-2.28-2.13-3.01-5.28-3.7-8.2-.45-1.88-3.34-1.08-2.89,.8h0Z"/>
    <path class="cls-1" d="M159.7,38.17c1.5,.1,3.09-.45,4.42-1.1s2.28-1.67,2.74-3.03c.91-2.71-.9-6.31-4.05-6.12-1.34,.08-2.63,.74-3.49,1.78-.97,1.17-1.38,2.61-1.58,4.1-.38,2.82-.44,6.17,1.85,8.26,1.3,1.19,2.84,1.4,4.54,1.4s3.42-.16,4.99-.95c.72-.37,.93-1.38,.54-2.05-.43-.74-1.33-.9-2.05-.54-.81,.41-1.73,.5-2.62,.52-.83,.03-2.04,.14-2.71-.15s-1.1-.85-1.37-1.48c-.37-.84-.41-1.9-.37-2.85s.13-1.96,.39-2.9c.11-.42,.26-.78,.48-1.15,.17-.28,.38-.5,.64-.68,.13-.09,.37-.21,.44-.24-.05,.02,.47-.11,.24-.08,.11-.02,.23-.01,.33,0-.03,0-.17-.04,.02,0s.25,.05,.37,.14c.56,.38,.73,1.08,.65,1.71-.03,.25-.16,.64-.39,.93-.19,.25-.59,.52-.93,.7-.91,.49-2.04,.85-3.08,.78-.81-.05-1.5,.73-1.5,1.5,0,.86,.69,1.45,1.5,1.5h0Z"/>
    <path class="cls-1" d="M215.89,38.17c1.5,.1,3.09-.45,4.42-1.1s2.28-1.67,2.74-3.03c.91-2.71-.9-6.31-4.05-6.12-1.34,.08-2.63,.74-3.49,1.78-.97,1.17-1.38,2.61-1.58,4.1-.38,2.82-.44,6.17,1.85,8.26,1.3,1.19,2.84,1.4,4.54,1.4s3.42-.16,4.99-.95c.72-.37,.93-1.38,.54-2.05-.43-.74-1.33-.9-2.05-.54-.81,.41-1.73,.5-2.62,.52-.83,.03-2.04,.14-2.71-.15s-1.1-.85-1.37-1.48c-.37-.84-.41-1.9-.37-2.85s.13-1.96,.39-2.9c.11-.42,.26-.78,.48-1.15,.17-.28,.38-.5,.64-.68,.13-.09,.37-.21,.44-.24-.05,.02,.47-.11,.24-.08,.11-.02,.23-.01,.33,0-.03,0-.17-.04,.02,0s.25,.05,.37,.14c.56,.38,.73,1.08,.65,1.71-.03,.25-.16,.64-.39,.93-.19,.25-.59,.52-.93,.7-.91,.49-2.04,.85-3.08,.78-.81-.05-1.5,.73-1.5,1.5,0,.86,.69,1.45,1.5,1.5h0Z"/>
    <path class="cls-1" d="M179.18,21.2c-2.34-.79-5.23-.59-7.45,.53-2.07,1.05-3.34,3.53-3.75,5.72-.46,2.4,.46,4.86,2.32,6.45,.99,.85,2.17,1.47,3.46,1.72,1.07,.21,2.33,.17,2.86,1.29,.23,.49,.26,1,.17,1.53-.04,.27-.11,.3-.4,.54-.78,.62-1.79,.23-2.71,.05-1.89-.36-2.69,2.53-.8,2.89,1.18,.22,2.4,.54,3.6,.3,.9-.18,1.73-.76,2.36-1.41,1.72-1.81,1.14-5.1-.6-6.69-1.12-1.01-2.41-1.12-3.81-1.42-1.05-.23-1.99-.77-2.68-1.6-1.36-1.65-.99-3.94,.22-5.59,1.39-1.9,4.25-2.15,6.43-1.41,1.83,.62,2.62-2.28,.8-2.89h0Z"/>
    <path class="cls-1" d="M181.09,35.72c-.94,2.48,.15,5.76,2.99,6.29s4.91-1.71,5.82-4.03c.49-1.24,.67-2.6,.77-3.92,.09-1.18-.02-2.4-.46-3.51-.96-2.42-3.38-4.28-6.05-3.3-2.92,1.07-3.98,4.15-3.69,7.04,.08,.81,.63,1.5,1.5,1.5,.75,0,1.58-.69,1.5-1.5s-.1-1.56,.09-2.29c.09-.36,.2-.64,.4-.96,.15-.25,.37-.5,.61-.67,.42-.3,.97-.45,1.32-.37,.58,.13,1.04,.66,1.34,1.21,.69,1.26,.53,2.92,.23,4.39-.16,.78-.38,1.56-.81,2.24-.3,.46-.87,.97-1.32,1.14-.13,.05-.43,.12-.47,.12-.08,.01-.14,0-.32-.06-.15-.05-.4-.22-.53-.39-.45-.58-.31-1.42-.04-2.13,.29-.76-.32-1.64-1.05-1.85-.84-.23-1.56,.29-1.85,1.05h0Z"/>
  </g>
</svg>